# xmcd
#
# Track frame offsets:
#	150
#	18772
#	34002
#
# Disc length: 938 seconds
#
# Revision: 1
# Processed by: cddbd v1.5.1PL0 Copyright (c) Steve Scherf et al.
# Submitted via: EasyCDDAExtractor 8.0.1.1
#
DISCID=1503a803
DTITLE=Destiny's Child - Get On The Bus
DYEAR=1998
DGENRE=R&B
TTITLE0=Get On The Bus (Radio Version ft. Timbaland)
TTITLE1=Get On The Bus (Radio Edit Without Rap)
TTITLE2=Illusions (Destiny Club Mix)
EXTD=
EXTT0=Get On The Bus (radio version - featuring Timbaland]\n
EXTT1=
EXTT2=
PLAYORDER=
